<!-- Generator: Adobe Illustrator 22.0.0, SVG Export Plug-In  -->
<svg enable-background="new 0 0 156.2 231.2" overflow="scroll" version="1.1" viewBox="0 0 156.2 231.2" xml:space="preserve" xmlns="http://www.w3.org/2000/svg">
<style type="text/css">
	.st0{fill-rule:evenodd;clip-rule:evenodd;fill:none;stroke:#038176;stroke-width:9.2011;stroke-miterlimit:10;}
</style>
	<path class="st0" d="m29.6 226.6h-14c-6.1 0-11-5-11-11v-200c0-6.1 5-11 11-11h13.9c6.1 0 11 5 11 11v199.9c0.1 6.1-4.9 11.1-10.9 11.1z"/>
	<path class="st0" d="m140.6 226.6h-13.9c-6.1 0-11-5-11-11v-200c0-6.1 5-11 11-11h13.9c6.1 0 11 5 11 11v199.9c0 6.1-5 11.1-11 11.1z"/>
</svg>
