<svg enable-background="new 0 0 246.4 339.1" overflow="scroll" version="1.1" viewBox="0 0 246.4 339.1" xml:space="preserve" xmlns="http://www.w3.org/2000/svg">
<style type="text/css">
	.st0{fill:#038176;}
</style>
			<path class="st0" d="m0 16.6v103.9 165.4 37.8c0 8 7.1 15.7 15.4 15.4 8.3-0.4 15.4-6.7 15.4-15.4v-103.9-165.4-37.8c0-8-7.1-15.7-15.4-15.4-8.4 0.4-15.4 6.8-15.4 15.4z"/>
			<path class="st0" d="m223.3 156.3c-24.3 17.4-48.7 34.8-73 52.2-38.6 27.6-77.3 55.2-115.9 82.8-8.9 6.4-17.8 12.7-26.7 19.1-6.7 4.8-10 13.4-5.5 21 3.9 6.7 14.2 10.4 21 5.5 24.3-17.4 48.7-34.8 73-52.2 38.6-27.6 77.3-55.2 115.9-82.8 8.9-6.4 17.8-12.7 26.7-19.1 6.7-4.8 10-13.4 5.5-21-3.9-6.7-14.3-10.4-21-5.5z"/>
			<path class="st0" d="m238.8 156.3c-24.3-17.4-48.7-34.8-73-52.2-38.7-27.6-77.4-55.2-116-82.8-8.9-6.4-17.8-12.7-26.7-19.1-6.7-4.8-17.1-1.2-21 5.5-4.5 7.7-1.3 16.2 5.5 21 24.3 17.4 48.7 34.8 73 52.2 38.6 27.6 77.3 55.2 115.9 82.8 8.9 6.4 17.8 12.7 26.7 19.1 6.8 4.8 17.1 1.2 21-5.5 4.6-7.7 1.3-16.2-5.4-21z"/>
</svg>
